HIERARCHY
ROOT Hips
{
	OFFSET -19.833931 -21.612968 87.443054
	CHANNELS 6 Xposition Yposition Zposition Zrotation Yrotation Xrotation
	JOINT Spine
	{
		OFFSET 0.000000 2.080109 8.814247
		CHANNELS 6 Xposition Yposition Zposition Zrotation Yrotation Xrotation
		JOINT Spine1
		{
			OFFSET 0.000000 0.000000 8.844139
			CHANNELS 6 Xposition Yposition Zposition Zrotation Yrotation Xrotation
			JOINT Spine2
			{
				OFFSET 0.000000 0.000002 11.682266
				CHANNELS 6 Xposition Yposition Zposition Zrotation Yrotation Xrotation
				JOINT Spine3
				{
					OFFSET 0.000000 0.000000 11.746704
					CHANNELS 6 Xposition Yposition Zposition Zrotation Yrotation Xrotation
					JOINT Neck
					{
						OFFSET 0.000000 0.000002 17.658264
						CHANNELS 6 Xposition Yposition Zposition Zrotation Yrotation Xrotation
						JOINT Neck1
						{
							OFFSET 0.000000 0.000000 5.101517
							CHANNELS 6 Xposition Yposition Zposition Zrotation Yrotation Xrotation
							JOINT Head
							{
								OFFSET 0.000000 0.000000 5.101517
								CHANNELS 6 Xposition Yposition Zposition Zrotation Yrotation Xrotation
								JOINT HeadEnd
								{
									OFFSET 0.000000 0.000002 11.655090
									CHANNELS 6 Xposition Yposition Zposition Zrotation Yrotation Xrotation
									End Site
									{
										OFFSET 0.000000 0.000000 0.100006
									}
								}
							}
						}
					}
					JOINT RightShoulder
					{
						OFFSET -2.625389 0.000002 11.175217
						CHANNELS 6 Xposition Yposition Zposition Zrotation Yrotation Xrotation
						JOINT RightArm
						{
							OFFSET 0.000000 0.000000 10.434723
							CHANNELS 6 Xposition Yposition Zposition Zrotation Yrotation Xrotation
							JOINT RightForeArm
							{
								OFFSET 0.000000 0.000002 29.628418
								CHANNELS 6 Xposition Yposition Zposition Zrotation Yrotation Xrotation
								JOINT RightHand
								{
									OFFSET 0.000000 0.000002 22.857605
									CHANNELS 6 Xposition Yposition Zposition Zrotation Yrotation Xrotation
									JOINT RightHandThumb1
									{
										OFFSET -2.867323 -2.944290 3.959564
										CHANNELS 6 Xposition Yposition Zposition Zrotation Yrotation Xrotation
										JOINT RightHandThumb2
										{
											OFFSET 0.000000 0.000000 3.350403
											CHANNELS 6 Xposition Yposition Zposition Zrotation Yrotation Xrotation
											JOINT RightHandThumb3
											{
												OFFSET 0.000000 0.000000 3.756516
												CHANNELS 6 Xposition Yposition Zposition Zrotation Yrotation Xrotation
												JOINT RightHandThumb4
												{
													OFFSET 0.000000 0.000002 3.147339
													CHANNELS 6 Xposition Yposition Zposition Zrotation Yrotation Xrotation
													End Site
													{
														OFFSET 0.000000 0.000000 0.100006
													}
												}
											}
										}
									}
									JOINT RightHandIndex1
									{
										OFFSET -0.086752 -2.345280 10.030899
										CHANNELS 6 Xposition Yposition Zposition Zrotation Yrotation Xrotation
										JOINT RightHandIndex2
										{
											OFFSET 0.000000 0.000002 4.061096
											CHANNELS 6 Xposition Yposition Zposition Zrotation Yrotation Xrotation
											JOINT RightHandIndex3
											{
												OFFSET 0.000000 0.000000 3.248871
												CHANNELS 6 Xposition Yposition Zposition Zrotation Yrotation Xrotation
												JOINT RightHandIndex4
												{
													OFFSET 0.000000 0.000000 2.639709
													CHANNELS 6 Xposition Yposition Zposition Zrotation Yrotation Xrotation
													End Site
													{
														OFFSET 0.000000 0.000000 0.100006
													}
												}
											}
										}
									}
									JOINT RightHandMiddle1
									{
										OFFSET 0.104101 -0.006767 9.502945
										CHANNELS 6 Xposition Yposition Zposition Zrotation Yrotation Xrotation
										JOINT RightHandMiddle2
										{
											OFFSET 0.000000 0.000002 4.568726
											CHANNELS 6 Xposition Yposition Zposition Zrotation Yrotation Xrotation
											JOINT RightHandMiddle3
											{
												OFFSET 0.000000 0.000000 3.654984
												CHANNELS 6 Xposition Yposition Zposition Zrotation Yrotation Xrotation
												JOINT RightHandMiddle4
												{
													OFFSET 0.000000 0.000000 2.741241
													CHANNELS 6 Xposition Yposition Zposition Zrotation Yrotation Xrotation
													End Site
													{
														OFFSET 0.000000 0.000000 0.100006
													}
												}
											}
										}
									}
									JOINT RightHandRing1
									{
										OFFSET 0.086752 2.267443 8.921707
										CHANNELS 6 Xposition Yposition Zposition Zrotation Yrotation Xrotation
										JOINT RightHandRing2
										{
											OFFSET 0.000000 0.000002 4.061096
											CHANNELS 6 Xposition Yposition Zposition Zrotation Yrotation Xrotation
											JOINT RightHandRing3
											{
												OFFSET 0.000000 0.000000 3.654984
												CHANNELS 6 Xposition Yposition Zposition Zrotation Yrotation Xrotation
												JOINT RightHandRing4
												{
													OFFSET 0.000000 0.000000 2.741241
													CHANNELS 6 Xposition Yposition Zposition Zrotation Yrotation Xrotation
													End Site
													{
														OFFSET 0.000000 0.000000 0.100006
													}
												}
											}
										}
									}
									JOINT RightHandPinky1
									{
										OFFSET -0.173504 4.467200 7.976990
										CHANNELS 6 Xposition Yposition Zposition Zrotation Yrotation Xrotation
										JOINT RightHandPinky2
										{
											OFFSET 0.000000 0.000000 3.350403
											CHANNELS 6 Xposition Yposition Zposition Zrotation Yrotation Xrotation
											JOINT RightHandPinky3
											{
												OFFSET 0.000000 0.000000 2.842758
												CHANNELS 6 Xposition Yposition Zposition Zrotation Yrotation Xrotation
												JOINT RightHandPinky4
												{
													OFFSET 0.000000 0.000000 2.639709
													CHANNELS 6 Xposition Yposition Zposition Zrotation Yrotation Xrotation
													End Site
													{
														OFFSET 0.000000 0.000000 0.100006
													}
												}
											}
										}
									}
									JOINT RightForeArmEnd
									{
										OFFSET 0.000000 0.000000 0.000000
										CHANNELS 6 Xposition Yposition Zposition Zrotation Yrotation Xrotation
										End Site
										{
											OFFSET 0.000000 0.000000 0.100006
										}
									}
								}
								JOINT RightArmEnd
								{
									OFFSET 0.000000 0.000000 0.000000
									CHANNELS 6 Xposition Yposition Zposition Zrotation Yrotation Xrotation
									End Site
									{
										OFFSET 0.000000 0.000000 0.100006
									}
								}
							}
						}
					}
					JOINT LeftShoulder
					{
						OFFSET 2.625389 0.000002 11.175217
						CHANNELS 6 Xposition Yposition Zposition Zrotation Yrotation Xrotation
						JOINT LeftArm
						{
							OFFSET 0.000000 0.000000 10.813629
							CHANNELS 6 Xposition Yposition Zposition Zrotation Yrotation Xrotation
							JOINT LeftForeArm
							{
								OFFSET 0.000000 0.000002 28.724777
								CHANNELS 6 Xposition Yposition Zposition Zrotation Yrotation Xrotation
								JOINT LeftHand
								{
									OFFSET 0.644384 0.328873 25.716171
									CHANNELS 6 Xposition Yposition Zposition Zrotation Yrotation Xrotation
									JOINT LeftHandThumb1
									{
										OFFSET 2.867323 -2.944292 3.959564
										CHANNELS 6 Xposition Yposition Zposition Zrotation Yrotation Xrotation
										JOINT LeftHandThumb2
										{
											OFFSET 0.000000 0.000000 3.350403
											CHANNELS 6 Xposition Yposition Zposition Zrotation Yrotation Xrotation
											JOINT LeftHandThumb3
											{
												OFFSET 0.000000 0.000002 3.756516
												CHANNELS 6 Xposition Yposition Zposition Zrotation Yrotation Xrotation
												JOINT LeftHandThumb4
												{
													OFFSET 0.000000 0.000000 3.100006
													CHANNELS 6 Xposition Yposition Zposition Zrotation Yrotation Xrotation
													End Site
													{
														OFFSET 0.000000 0.000000 0.100006
													}
												}
											}
										}
									}
									JOINT LeftHandIndex1
									{
										OFFSET 0.086752 -2.345278 10.030899
										CHANNELS 6 Xposition Yposition Zposition Zrotation Yrotation Xrotation
										JOINT LeftHandIndex2
										{
											OFFSET 0.000000 0.000000 4.061096
											CHANNELS 6 Xposition Yposition Zposition Zrotation Yrotation Xrotation
											JOINT LeftHandIndex3
											{
												OFFSET 0.000000 0.000000 3.248871
												CHANNELS 6 Xposition Yposition Zposition Zrotation Yrotation Xrotation
												JOINT LeftHandIndex4
												{
													OFFSET 0.000000 0.000000 2.639709
													CHANNELS 6 Xposition Yposition Zposition Zrotation Yrotation Xrotation
													End Site
													{
														OFFSET 0.000000 0.000000 0.100006
													}
												}
											}
										}
									}
									JOINT LeftHandMiddle1
									{
										OFFSET -0.104101 -0.006767 9.502945
										CHANNELS 6 Xposition Yposition Zposition Zrotation Yrotation Xrotation
										JOINT LeftHandMiddle2
										{
											OFFSET 0.000000 0.000002 4.568726
											CHANNELS 6 Xposition Yposition Zposition Zrotation Yrotation Xrotation
											JOINT LeftHandMiddle3
											{
												OFFSET 0.000000 0.000000 3.654984
												CHANNELS 6 Xposition Yposition Zposition Zrotation Yrotation Xrotation
												JOINT LeftHandMiddle4
												{
													OFFSET 0.000000 0.000000 2.741241
													CHANNELS 6 Xposition Yposition Zposition Zrotation Yrotation Xrotation
													End Site
													{
														OFFSET 0.000000 0.000000 0.100006
													}
												}
											}
										}
									}
									JOINT LeftHandRing1
									{
										OFFSET -0.086752 2.267443 8.921707
										CHANNELS 6 Xposition Yposition Zposition Zrotation Yrotation Xrotation
										JOINT LeftHandRing2
										{
											OFFSET 0.000000 0.000002 4.061096
											CHANNELS 6 Xposition Yposition Zposition Zrotation Yrotation Xrotation
											JOINT LeftHandRing3
											{
												OFFSET 0.000000 0.000000 3.654984
												CHANNELS 6 Xposition Yposition Zposition Zrotation Yrotation Xrotation
												JOINT LeftHandRing4
												{
													OFFSET 0.000000 0.000000 2.741241
													CHANNELS 6 Xposition Yposition Zposition Zrotation Yrotation Xrotation
													End Site
													{
														OFFSET 0.000000 0.000000 0.100006
													}
												}
											}
										}
									}
									JOINT LeftHandPinky1
									{
										OFFSET 0.173504 4.467200 7.976990
										CHANNELS 6 Xposition Yposition Zposition Zrotation Yrotation Xrotation
										JOINT LeftHandPinky2
										{
											OFFSET 0.000000 0.000000 3.350403
											CHANNELS 6 Xposition Yposition Zposition Zrotation Yrotation Xrotation
											JOINT LeftHandPinky3
											{
												OFFSET 0.000000 0.000000 2.842758
												CHANNELS 6 Xposition Yposition Zposition Zrotation Yrotation Xrotation
												JOINT LeftHandPinky4
												{
													OFFSET 0.000000 0.000001 2.639709
													CHANNELS 6 Xposition Yposition Zposition Zrotation Yrotation Xrotation
													End Site
													{
														OFFSET 0.000000 0.000000 0.100006
													}
												}
											}
										}
									}
									JOINT LeftForeArmEnd
									{
										OFFSET 0.000000 0.000000 0.000000
										CHANNELS 6 Xposition Yposition Zposition Zrotation Yrotation Xrotation
										End Site
										{
											OFFSET 0.000000 0.000000 0.100006
										}
									}
								}
								JOINT LeftArmEnd
								{
									OFFSET 0.000000 0.000000 0.000000
									CHANNELS 6 Xposition Yposition Zposition Zrotation Yrotation Xrotation
									End Site
									{
										OFFSET 0.000000 0.000000 0.100006
									}
								}
							}
						}
					}
				}
			}
		}
	}
	JOINT RightUpLeg
	{
		OFFSET -11.289944 0.000000 0.000000
		CHANNELS 6 Xposition Yposition Zposition Zrotation Yrotation Xrotation
		JOINT RightLeg
		{
			OFFSET 0.000000 -0.000002 -38.200325
			CHANNELS 6 Xposition Yposition Zposition Zrotation Yrotation Xrotation
			JOINT RightFoot
			{
				OFFSET 0.000000 -0.000004 -39.900856
				CHANNELS 6 Xposition Yposition Zposition Zrotation Yrotation Xrotation
				JOINT RightToeBase
				{
					OFFSET 0.000000 -15.261641 0.000001
					CHANNELS 6 Xposition Yposition Zposition Zrotation Yrotation Xrotation
					JOINT RightToeBaseEnd
					{
						OFFSET 0.000000 -7.370708 0.000001
						CHANNELS 6 Xposition Yposition Zposition Zrotation Yrotation Xrotation
						End Site
						{
							OFFSET 0.000000 0.000000 0.100000
						}
					}
				}
				JOINT RightLegEnd
				{
					OFFSET 0.000000 0.000000 0.000000
					CHANNELS 6 Xposition Yposition Zposition Zrotation Yrotation Xrotation
					End Site
					{
						OFFSET 0.000000 0.000000 0.100000
					}
				}
			}
			JOINT RightUpLegEnd
			{
				OFFSET 0.000000 0.000000 0.000000
				CHANNELS 6 Xposition Yposition Zposition Zrotation Yrotation Xrotation
				End Site
				{
					OFFSET 0.000000 0.000000 0.099998
				}
			}
		}
	}
	JOINT LeftUpLeg
	{
		OFFSET 11.315661 0.000000 0.000000
		CHANNELS 6 Xposition Yposition Zposition Zrotation Yrotation Xrotation
		JOINT LeftLeg
		{
			OFFSET 0.000000 -0.000002 -38.200325
			CHANNELS 6 Xposition Yposition Zposition Zrotation Yrotation Xrotation
			JOINT LeftFoot
			{
				OFFSET 0.000000 -0.000004 -39.900856
				CHANNELS 6 Xposition Yposition Zposition Zrotation Yrotation Xrotation
				JOINT LeftToeBase
				{
					OFFSET 0.000000 -15.261641 0.000001
					CHANNELS 6 Xposition Yposition Zposition Zrotation Yrotation Xrotation
					JOINT LeftToeBaseEnd
					{
						OFFSET 0.000000 -7.539997 0.000001
						CHANNELS 6 Xposition Yposition Zposition Zrotation Yrotation Xrotation
						End Site
						{
							OFFSET 0.000000 0.000000 0.100000
						}
					}
				}
				JOINT LeftLegEnd
				{
					OFFSET 0.000000 0.000000 0.000000
					CHANNELS 6 Xposition Yposition Zposition Zrotation Yrotation Xrotation
					End Site
					{
						OFFSET 0.000000 0.000000 0.100000
					}
				}
			}
			JOINT LeftUpLegEnd
			{
				OFFSET 0.000000 0.000000 0.000000
				CHANNELS 6 Xposition Yposition Zposition Zrotation Yrotation Xrotation
				End Site
				{
					OFFSET 0.000000 0.000000 0.099998
				}
			}
		}
	}
}
MOTION
Frames: 2
Frame Time: 0.016667
3.495119 27.549786 79.079948 9.330960 1.280285 17.631027 -0.000000 2.080106 8.814252 0.211917 -2.247962 11.357619 0.000000 0.000005 8.844134 -0.225083 -0.869681 16.716999 0.000002 0.000002 11.682281 0.322079 0.153084 15.139569 0.000001 -0.000000 11.746709 0.138881 0.827499 7.523485 0.000004 -0.000011 17.658260 1.401225 -6.108850 30.817223 0.000004 -0.000008 5.101523 1.647715 1.082094 5.179881 0.000004 0.000002 5.101516 3.958344 -1.139586 -23.000599 0.000000 -0.000004 11.655075 -0.000001 -0.000000 0.000000 -2.625379 -0.000002 11.175220 8.912762 -92.932954 -0.087912 -0.000010 -0.000014 10.434736 -74.692845 -32.965351 57.487885 -0.000003 0.000004 29.628418 15.849497 1.655008 115.797825 -0.000001 -0.000005 22.857607 46.044989 -29.527109 0.778287 -2.867311 -2.944306 3.959576 31.503554 -18.866138 49.121296 -0.000002 0.000008 3.350420 -16.232788 9.649935 -28.758160 -0.000005 0.000003 3.756520 -10.749597 7.588735 -19.638732 -0.000002 0.000003 3.147324 -0.000001 0.000001 -0.000001 -0.086756 -2.345279 10.030895 -15.538972 -29.204881 6.336629 -0.000001 -0.000001 4.061097 -0.077310 -20.991401 3.103270 -0.000007 -0.000002 3.248911 -0.569456 -20.991507 3.099841 -0.000004 -0.000001 2.639710 -0.000001 -0.000000 -0.000001 0.104120 -0.006766 9.502910 -10.062983 -30.655737 0.737496 -0.000004 0.000003 4.568724 0.265644 -21.782218 1.199751 0.000003 0.000003 3.655006 -0.228193 -21.782208 1.197659 -0.000005 0.000000 2.741241 -0.000001 -0.000001 0.000001 0.086747 2.267442 8.921715 -1.454614 -33.327082 -9.127534 0.000002 0.000002 4.061092 -0.658586 -24.118008 -1.572107 -0.000018 0.000001 3.654971 0.334852 -24.118011 -1.565752 0.000001 -0.000002 2.741226 0.000000 0.000000 0.000001 -0.173499 4.467211 7.976986 7.587279 -32.236273 -21.797060 -0.000017 0.000000 3.350399 -0.818361 -25.275899 -5.266322 -0.000020 0.000001 2.842791 1.181594 -25.276708 -5.266311 -0.000002 0.000000 2.639709 -0.000000 -0.000000 0.000000 0.000010 -0.000000 -0.000000 -0.000000 -0.000000 -0.000000 -0.000008 -0.000007 -0.000000 0.000002 -0.000001 -0.000001 2.625411 -0.000002 11.175212 -8.655346 92.650908 -0.636480 0.000012 -0.000001 10.813629 75.552472 26.990285 49.012416 0.000003 -0.000004 28.724768 -15.297996 -0.380585 112.466646 0.644390 0.328869 25.716208 5.200657 24.503278 3.183301 2.867324 -2.944313 3.959581 -31.490488 19.408833 48.330784 0.000005 0.000022 3.350421 17.445753 -9.975876 -30.734332 -0.000001 0.000000 3.756516 11.538510 -7.948186 -20.974109 -0.000001 -0.000004 3.099992 0.000000 0.000003 -0.000000 0.086747 -2.345265 10.030906 -2.825270 35.567425 -11.746635 0.000018 0.000002 4.061092 -0.406548 25.987560 -3.928187 0.000012 -0.000003 3.248885 -0.906207 25.987239 -3.928024 0.000006 -0.000006 2.639695 0.000001 0.000000 -0.000001 -0.104110 -0.006766 9.502950 2.669576 33.913826 -5.765827 0.000001 -0.000003 4.568727 0.208336 24.322037 -1.356338 0.000003 -0.000006 3.654982 -0.306090 24.322008 -1.362899 0.000002 -0.000001 2.741240 -0.000000 0.000001 0.000004 -0.086745 2.267449 8.921701 10.807431 28.902202 6.180950 0.000014 0.000005 4.061089 -0.757248 20.809793 1.330628 0.000011 0.000011 3.655003 0.242942 20.809787 1.328041 0.000002 -0.000001 2.741227 0.000002 0.000001 -0.000002 0.173510 4.467202 7.977007 17.812771 19.740905 16.310348 -0.000001 0.000005 3.350421 -1.559758 15.960139 3.184997 0.000002 -0.000005 2.842763 0.441262 15.960255 3.185241 -0.000004 0.000003 2.639709 0.000000 -0.000003 -0.000001 0.000005 0.000007 0.000030 0.000003 -0.000000 0.000000 0.000008 -0.000001 0.000031 -0.000001 0.000001 0.000000 -11.289943 -0.000010 0.000001 6.536816 2.308753 -50.765514 -0.000001 -0.000001 -38.200333 0.626655 -1.153813 61.489201 0.000004 -0.000006 -39.900860 -17.157119 -1.497244 7.973685 0.000002 -15.261637 -0.000005 -1.473909 -3.394928 -34.091305 -0.000000 -7.370708 0.000001 -0.000000 -0.000000 0.000000 -0.000000 0.000002 0.000001 -0.000000 0.000000 0.000001 0.000000 -0.000000 -0.000010 0.000000 0.000001 -0.000002 11.315660 -0.000012 0.000011 -11.045663 -4.178754 -53.402951 0.000001 -0.000008 -38.200325 -0.518418 0.979088 62.097327 0.000001 -0.000009 -39.900860 13.415689 -1.780376 8.802213 0.000001 -15.261641 -0.000000 1.830131 2.704410 -34.862600 -0.000003 -7.539997 0.000001 0.000000 0.000000 0.000000 0.000001 -0.000006 0.000001 -0.000001 -0.000001 0.000001 0.000001 -0.000005 0.000003 0.000000 -0.000000 0.000001 
3.492304 27.506023 79.052612 9.269077 1.279921 17.750410 -0.000001 2.080096 8.814241 0.230060 -2.239596 11.420217 -0.000001 -0.000003 8.844136 -0.223610 -0.867519 16.876924 -0.000000 0.000003 11.682278 0.349692 0.227216 15.196416 0.000000 0.000003 11.746707 0.140735 0.843891 7.734067 0.000001 0.000007 17.658266 1.540168 -5.867728 32.354674 -0.000001 -0.000007 5.101520 1.740230 1.049644 5.676731 -0.000001 -0.000001 5.101531 3.957320 -1.062645 -23.037760 -0.000000 0.000010 11.655090 -0.000001 0.000000 0.000000 -2.625389 0.000012 11.175214 8.614976 -92.915421 -0.085724 -0.000001 -0.000005 10.434722 -74.552601 -32.675628 57.569199 0.000006 -0.000009 29.628407 15.735311 1.643196 115.895647 0.000006 0.000006 22.857603 46.058216 -29.434485 0.955648 -2.867318 -2.944311 3.959572 31.503561 -18.866135 49.121286 0.000003 0.000008 3.350420 -16.232776 9.649938 -28.758153 0.000012 0.000009 3.756539 -10.749606 7.588736 -19.638740 0.000001 -0.000002 3.147340 0.000001 0.000001 -0.000002 -0.086756 -2.345279 10.030900 -15.558341 -29.284340 6.115034 0.000008 0.000002 4.061121 -0.078643 -21.023710 3.104184 -0.000002 0.000003 3.248878 -0.572606 -21.023691 3.101640 -0.000002 -0.000000 2.639694 0.000002 -0.000000 0.000000 0.104104 -0.006764 9.502925 -10.072419 -30.694518 0.534642 -0.000007 0.000005 4.568728 0.266600 -21.801129 1.200616 0.000001 0.000001 3.654992 -0.228027 -21.801026 1.198786 -0.000002 0.000002 2.741225 0.000000 -0.000002 0.000001 0.086737 2.267444 8.921705 -1.457351 -33.311287 -9.325600 -0.000013 0.000003 4.061084 -0.659786 -24.117820 -1.567782 -0.000018 0.000001 3.655006 0.333553 -24.117757 -1.565600 -0.000001 0.000001 2.741211 -0.000000 0.000000 -0.000000 -0.173516 4.467217 7.977007 7.568364 -32.170048 -21.987897 0.000008 0.000000 3.350424 -0.819478 -25.260934 -5.262659 0.000012 0.000002 2.842765 1.178886 -25.260951 -5.261982 -0.000002 0.000002 2.639711 -0.000001 0.000001 -0.000003 -0.000006 -0.000001 0.000000 -0.000000 0.000000 -0.000000 0.000001 0.000008 -0.000001 -0.000004 -0.000002 -0.000000 2.625390 0.000019 11.175221 -8.506440 92.572190 -0.663402 0.000008 0.000010 10.813618 75.460094 26.893438 49.091431 -0.000010 -0.000001 28.724787 -15.278469 -0.377407 112.602130 0.644389 0.328869 25.716187 4.979190 24.563128 3.126920 2.867311 -2.944315 3.959563 -31.493282 19.227479 48.594071 -0.000010 0.000004 3.350410 17.040041 -9.871814 -30.074617 0.000004 0.000002 3.756528 11.274510 -7.830446 -20.528342 -0.000001 0.000005 3.100022 0.000001 0.000001 -0.000001 0.086737 -2.345286 10.030894 -2.825025 35.408134 -12.113786 0.000001 0.000001 4.061104 -0.401244 25.914561 -3.915611 -0.000004 -0.000001 3.248877 -0.901243 25.914580 -3.915597 -0.000005 -0.000000 2.639710 0.000001 -0.000002 -0.000002 -0.104113 -0.006773 9.502922 2.651296 33.791695 -6.120158 0.000015 0.000002 4.568725 0.209349 24.250421 -1.352200 0.000003 0.000002 3.655021 -0.306284 24.250375 -1.358855 -0.000002 -0.000000 2.741256 0.000001 -0.000001 0.000001 -0.086755 2.267438 8.921696 10.782817 28.827957 5.887091 0.000002 0.000004 4.061100 -0.758513 20.740855 1.322660 0.000024 -0.000003 3.654981 0.240772 20.740728 1.322064 0.000005 0.000004 2.741241 -0.000000 -0.000002 0.000001 0.173498 4.467198 7.977015 17.802837 19.697936 16.079153 -0.000005 0.000004 3.350423 -1.564533 15.895618 3.171101 -0.000002 -0.000001 2.842770 0.436628 15.895489 3.171364 0.000001 -0.000001 2.639709 -0.000002 -0.000003 -0.000002 -0.000008 -0.000005 0.000030 0.000002 0.000000 0.000001 0.000003 0.000006 -0.000017 0.000002 -0.000005 -0.000000 -11.289944 -0.000018 -0.000002 6.574274 2.330876 -50.945647 -0.000002 -0.000008 -38.200333 0.630407 -1.167464 61.629364 -0.000001 0.000000 -39.900852 -17.144540 -1.499940 7.978556 -0.000001 -15.261641 -0.000002 -1.474636 -3.415520 -34.125456 0.000002 -7.370712 0.000000 0.000000 -0.000001 0.000000 0.000000 0.000003 0.000003 -0.000000 0.000000 0.000003 0.000000 0.000003 -0.000003 0.000001 0.000001 -0.000002 11.315659 -0.000010 0.000002 -11.042997 -4.209420 -53.560175 0.000001 -0.000003 -38.200325 -0.523083 0.993278 62.234730 -0.000002 -0.000009 -39.900856 13.479516 -1.734517 8.788375 0.000003 -15.261631 -0.000001 1.825552 2.719251 -34.763867 0.000002 -7.539997 0.000001 0.000001 -0.000000 -0.000000 0.000002 0.000004 0.000002 0.000001 0.000001 -0.000002 -0.000002 -0.000002 -0.000000 -0.000000 0.000000 0.000000 
